<svg xmlns="http://www.w3.org/2000/svg" width="400" height="652.863"><path d="M319.764 22.384c-15.757 5.955-54.394 38.726-57.612 48.864-.704 2.217-1.838 2.436-2.582.497-.32-.833-1.145-1.19-2.077-.9-.85.265-4.718-.502-8.594-1.705-25.044-7.773-64.886-8.667-84.141-1.888-2.181.767-8.326 2.78-13.657 4.472l-9.691 3.078-4.846-5.375C104.869 34.27 78.167 19.449 72.632 33.941c-3.117 8.162 4.804 55.088 12.346 73.138 1.82 4.357 1.725 8.518-.256 11.084-10.069 13.049-15.8 32.463-16.096 54.524l-.183 13.657 4.613 11.449c4.983 12.371 9.125 19.877 12.888 23.354 1.31 1.211 5.7 6.039 9.757 10.731 4.056 4.691 8.265 8.812 9.354 9.157 1.088.346 3.766 2.115 5.951 3.933 3.479 2.894 14.859 8.615 29.736 14.95 7.722 3.289 13.693 11.572 16.644 23.09 2.801 10.931.289 16.436-13.834 30.311-19.166 18.83-36.656 52.358-45.377 86.986-2.135 8.479-4.354 12.445-6.986 12.483-2.282.034-17.209 8.489-24.061 13.629-57.632 43.237-58.009 136.482-.608 150.595 12.884 3.168 43.42-.524 47.674-5.763 1.622-1.997 2.47-1.446 6.759 4.395 2.261 3.08 4.716 6.102 5.456 6.716 2.09 1.734 1.626 2.518-2.083 3.517-15.928 4.289-12.87 23.57 4.409 27.804 5.662 1.388 7.708 1.376 12.77-.074 1.503-.43 2.288.197 4.11 3.283 1.239 2.098 3.751 5.203 5.583 6.899 2.906 2.69 2.812 2.491-.735-1.559-4.179-4.771-8.934-15.334-10.053-22.332-.304-1.904-.88-3.663-1.28-3.911-.4-.247-.56-.932-.355-1.522.205-.59-1.2-2.159-3.122-3.487-2.246-1.553-3.494-3.094-3.494-4.316 0-1.754.205-1.687 2.65.873 1.458 1.525 2.771 2.773 2.918 2.773.147 0-.511-6.641-1.462-14.757-4.884-41.715-1.164-127.348 7.683-176.873.87-4.866.979-7.389.354-8.149-.655-.797-.53-1.102.451-1.102.745 0 1.533-.495 1.749-1.101 1.566-4.386 1.3 2.316-.558 14.021-15.064 94.91-11.491 200.361 7.4 218.385l2.741 2.616 1.685-2.07c1.958-2.405 4.037-8.91 5.252-16.432a655.449 655.449 0 0 1 1.73-10.132c6.899-38.144 7.619-151.883 1.236-195.375-.453-3.085-.299-3.744.872-3.744.782 0 1.422.109 1.422.243s.395 3.405.877 7.269c7.093 56.835 5.279 161.764-3.51 203.005-.884 4.15-1.449 7.707-1.256 7.905.194.199.609-.923.923-2.493.486-2.428.848-2.76 2.429-2.224 1.022.347 6.557 1.042 12.299 1.545 10.148.89 12.154.744 23.7-1.718 1.826-.389 2.423-.179 2.423.853 0 .753.458 1.653 1.018 1.998.572.354.78.245.474-.249-1.531-2.477-4.687-26.567-5.956-45.47-1.212-18.039-.632-89.46.889-109.431 2.825-37.108 5.124-56.854 6.994-60.068 1.357-2.334 1.268 3.027-.299 17.904-9.15 86.921-6.494 191.402 5.24 206.118 3.292 4.129 8.411-3.156 11.955-17.015.931-3.639 2.474-8.851 3.43-11.58 12.125-34.645 8.665-147.253-6.108-198.76-1.208-4.212-1.475-6.417-.851-7.041 1.421-1.421 2.113.364 5.575 14.379 12.907 52.256 16.09 138.663 6.69 181.592-1.968 8.986-2.038 8.867 2.519 4.264 4.316-4.359 7.34-5.495 4.636-1.742-.929 1.29-3.62 4.184-5.979 6.431-3.535 3.366-4.648 5.226-6.329 10.572-1.121 3.569-2.596 7.983-3.277 9.81-1.604 4.305-1.523 5.264.18 2.123 1.307-2.412 1.412-2.442 3.556-1.037 6.144 4.025 28.589.652 33.356-5.013 5.07-6.025-1.572-18.438-11.263-21.047-1.923-.518-4.519-1.33-5.767-1.805l-2.271-.863 2.244-1.937c6.91-5.964 32.472-44.107 32.472-48.455 0-.393.748-2.378 1.662-4.411 2.346-5.219 8.721-22.788 9.719-26.782.459-1.84 1.485-6.121 2.279-9.513.794-3.393 1.992-7.258 2.662-8.591.669-1.332.839-2.423.377-2.423-1.236 0-1.021-3.686.847-14.537.918-5.331 1.947-13.362 2.288-17.848.34-4.485 1.034-8.412 1.541-8.726 1.891-1.168-.434 25.6-3.317 38.187-1.798 7.855 25.324-12.471 38.594-28.923 8.545-10.593 29.04-45.366 32.899-55.818 10.371-28.087 12.945-45.683 8.026-54.872-4.447-8.307-10.223-15.786-13.145-17.018-10.956-4.621-23.851 2.474-22.521 12.392.51 3.803 4.216 8.837 6.505 8.837 11.717 0-18.364 65.399-42.349 92.071l-3.961 4.405-.04-12.59c-.129-41.003-10.45-79.149-28.648-105.874-6.566-9.643-17.584-22.156-21.139-24.009-6.434-3.353-8.71-16.245-4.741-26.853 2.973-7.947 7.277-11.676 19.687-17.055 5.815-2.521 11.167-5.084 11.894-5.695.727-.611 3.022-1.966 5.101-3.011 8.83-4.44 30.533-25.592 34.074-33.208 1.326-2.852 3.346-7.167 4.49-9.59 8.119-17.201 10.349-40.855 5.564-59.031-2.357-8.958-3.315-14.593-2.768-16.289.236-.733-1.596 1.641-4.071 5.276-2.475 3.634-4.501 7.116-4.502 7.736-.001.621-.597 1.358-1.324 1.637-.727.279-1.322.929-1.322 1.445 0 2.587-8.058 8.724-9.301 7.084-1.56-2.057-1.553-2.475.059-3.812 1.145-.951 6.305-7.559 13.403-17.167 2.246-3.039 6.412-11.604 6.412-13.182 0-.583 1.181-2.843 2.624-5.022 1.444-2.18 3.471-6.708 4.505-10.063 1.034-3.356 2.149-6.3 2.478-6.542.536-.394 1.222-2.413 3.293-9.692l.627-2.202.675 2.202c1.603 5.23-.098-32.252-1.839-40.534-1.928-9.168-7.942-22.462-10.46-23.12-.817-.214-3.682.442-6.368 1.457m1.546 22.55c5.571 35.192-8.338 93.341-22.087 92.336-4.385-.321-5.796-3.614-2.148-5.009 9.164-3.504 19.157-40.412 19.433-71.778.177-20.038.377-19.904-11.735-7.851l-9.948 9.9 2.038 2.169c2.277 2.424 1.927 4.903-.692 4.903-.925 0-2.19-.612-2.81-1.359-.781-.942-1.41-1.078-2.044-.443-.635.635-.02 1.842 2 3.926 4.458 4.6 1.221 7.195-3.424 2.745-2.167-2.076-2.322-2.102-3.293-.547-.884 1.415-.501 2.004 2.887 4.436 2.148 1.543 3.905 3.387 3.905 4.099 0 2.324-2.657 2.432-5.119.209-4.838-4.371-5.241-4.537-6.281-2.594-.823 1.539-.354 2.335 3.503 5.943 7.776 7.273 3.456 11.882-4.54 4.844-3.842-3.382-4.005-3.437-5.078-1.718-.61.976-.983 1.856-.828 1.955l6.124 3.915c6.922 4.424 8.957 6.488 8.544 8.664-.62 3.271-4.394 2.323-11.191-2.812-3.573-2.699-6.592-4.792-6.709-4.65-2.878 3.501-.75 5.729 14.133 14.796 2.648 1.614 3.545 4.053 2.121 5.769-1.695 2.043-2.654 1.626-11.233-4.888-9.434-7.162-9.683-7.233-10.045-2.863-.437 5.281-6.311 5.088-6.697-.22-1.069-14.699 45.421-71.862 57.525-70.732 2.573.24 2.671.423 3.689 6.855M96.441 53.179c7.447 3.875 29.584 24.777 34.656 32.724 5.626 8.815 10.66 21.361 9.393 23.411-.956 1.546-2.953-.873-3.581-4.336-1.847-10.185-10.562-22.006-31.056-42.126-4.195-4.118-16.692-11.962-17.885-11.225-2.017 1.247.032 14.283 4.596 29.233 3.667 12.009 3.315 11.317 4.758 9.363 2.3-3.116 3.76-.15 1.757 3.57-2.583 4.796-.462 5.956 2.555 1.397 1.296-1.958 2.714-3.56 3.151-3.56 1.851 0 1.338 2.486-1.394 6.757-2.711 4.238-2.839 4.76-1.78 7.279l1.141 2.713 3.47-6.832c2.933-5.776 3.81-6.833 5.672-6.833 4.404 0 3.091 5.27-3.523 14.142-3.187 4.274-3.266 4.548-2.009 6.948l1.31 2.499 2.476-4.528c3.458-6.325 10.334-15.803 12.135-16.728 4.475-2.299 4.836 1.901.636 7.403-3.365 4.408-9.263 14.158-9.263 15.313 0 .399-.586 1.213-1.303 1.808-.948.787-1.067 1.521-.438 2.697.582 1.088.558 1.806-.074 2.197-5.754 3.556-27.26-53.609-27.26-72.459 0-6.761.401-6.789 11.86-.827m182.754.376c-9.668 10.545-25.374 38.808-28.777 51.785-1.642 6.26-2.413 6.983-3.273 3.07-1.239-5.642 5.623-22.582 13.619-33.62 1.47-2.029 2.672-4.052 2.672-4.497 0-.444 1.289-2.078 2.864-3.631 1.574-1.553 5.764-6.086 9.31-10.073 3.547-3.987 6.673-7.25 6.949-7.25.276 0-1.238 1.897-3.364 4.216m-139.45 22.656c.328.97 1.462 2.952 2.521 4.406 5.332 7.326 9.204 22.392 6.679 25.991-1.288 1.836-2.658-.29-2.676-4.154-.02-4.266-2.207-10.159-8.049-21.694-7.482-14.773-7.857-16.101-3.025-10.716 2.174 2.423 4.222 5.198 4.55 6.167m196.921 15.567c-.056.809-.33 2.196-.609 3.084-.481 1.53-.455 1.532.5.044.553-.863.828-2.251.609-3.083-.358-1.365-.408-1.369-.5-.045m-3.652 11.47c-1.083 3.544-2.173 6.84-2.422 7.325-.303.587-.155.587.443 0 1.024-1.006 4.829-12.888 4.298-13.42-.193-.192-1.236 2.551-2.319 6.095m-3.355 10.887c-1.477 3.24-1.195 3.931.401.985.746-1.375 1.191-2.665.989-2.867-.201-.201-.827.645-1.39 1.882m-234.383 9.654c1.072 1.938 3.663 5.549 5.759 8.024 3.968 4.685 4.685 6.513 2.557 6.513-3.892 0-12.039-13.961-12.556-21.518l-.307-4.473 1.299 3.965c.714 2.18 2.176 5.55 3.248 7.489m164.28 5.066c8.386 7.851 12.509 18.961 11.613 31.291-.616 8.488-6.191 20.647-8.742 19.07-.414-.256-.753-.022-.753.52 0 .541-.396.74-.881.44-.485-.299-.881-.082-.881.483s-.595.799-1.322.52c-.727-.279-1.321-.123-1.321.346 0 .47-.793.854-1.762.854-.97 0-1.763-.423-1.763-.941 0-.539-.751-.702-1.762-.381-1.05.334-1.762.159-1.762-.433 0-.546-.396-.747-.881-.448-.484.3-.881.125-.881-.388s-.323-.834-.717-.713c-.908.279-6.331-5.072-6.331-6.247 0-.481-.315-1.007-.7-1.169-1.396-.586-4.554-9.446-5.579-15.654-2.367-14.335 3.112-26.803 13.327-30.325 5.627-1.94 5.639-1.937 11.098 3.175m-107.975-2.868c12.121 3.368 17.918 33.904 8.269 43.553-.693.693-1.26 1.516-1.26 1.83 0 .956-5.563 6.178-6.331 5.943-.394-.121-.717.199-.717.713 0 .513-.397.688-.881.388-.485-.299-.881-.201-.881.219 0 .42-1.983.764-4.406.764-2.422 0-4.405-.344-4.405-.764 0-.42-.396-.518-.881-.219-.484.3-.881.125-.881-.388 0-.514-.297-.844-.661-.735-1.381.415-5.251-4.355-7.309-9.009-6.686-15.124.369-37.258 13.377-41.966 3.769-1.363 3.318-1.342 6.967-.329m97.538 15.053c-1.905 1.109-2.318 18.184-.485 20.017 3.964 3.964 6.282-.784 5.47-11.204-.722-9.253-1.591-10.79-4.985-8.813m-105.289 2.287c-.362.884-.658 4.977-.658 9.096v7.489h5.286l.259-5.894c.41-9.317-2.681-16.078-4.887-10.691m66.313 46.118c.579.937-.644 5.586-2.662 10.114-.648 1.454-1.468 3.807-1.822 5.228-.355 1.422-1.176 3.602-1.825 4.846-.649 1.244-1.185 2.856-1.191 3.583-.006.727-.542 2.339-1.191 3.583-.649 1.244-1.447 3.325-1.773 4.625-.554 2.206-3.203 3.433-3.203 1.483 0-1.036-1.949-.791-2.775.349-1.099 1.517-3.395-.319-4.805-3.843-.782-1.955-1.716-3.554-2.075-3.554-.36 0-1.749-2.577-3.088-5.727-1.338-3.15-2.718-5.727-3.065-5.727-2.736 0-5.155-11.119-2.694-12.386 3.262-1.679 31.333-3.926 32.169-2.574m-7.5 4.53c0 .626-1.4.81-3.965.521-2.311-.261-3.964-.086-3.964.418 0 .479-1.577.715-3.525.53-1.938-.185-3.524.015-3.524.444s-1.394.618-3.099.419c-1.704-.199-2.992-.136-2.863.14 3.143 6.705 12.808 23.811 13.455 23.813.487.003 2.826-5.447 5.197-12.11a7228.633 7228.633 0 0 1 4.672-13.102c.199-.544-.257-1.225-1.012-1.515-.754-.289-1.372-.091-1.372.442m56.96 8.228c.512 1.687-2.793 4.746-5.418 5.015-1.454.149-3.19.789-3.858 1.423-.668.634-1.759.943-2.423.688-.664-.255-1.208-.056-1.208.442s-.396.661-.881.361c-.485-.299-.881-.082-.881.483s-.595.799-1.322.52c-.727-.279-1.321-.057-1.321.493s-.246.755-.546.455c-.3-.3-1.144.053-1.875.785-.732.732-1.874 1.122-2.539.867-.664-.255-1.208-.014-1.208.536 0 .551-.245.755-.545.455-.3-.3-1.139.048-1.864.774-.726.725-1.765 1.17-2.311.988-.545-.181-1.536.215-2.202.881-.667.667-1.658 1.063-2.203.881-.545-.181-1.549.228-2.232.911-.682.682-1.955 1.053-2.829.825-.873-.229-1.756.038-1.961.592-.601 1.627-2.573-.723-2.217-2.643.226-1.222 4.629-3.357 17.428-8.452 9.418-3.749 17.544-7.236 18.057-7.749 1.126-1.126 5.984-.768 6.359.469m-114.935 2.747c13.691 4.318 23.981 10.636 23.06 14.158-.549 2.1-4.008 2.169-6.392.127-.944-.808-1.938-1.247-2.21-.975-.272.272-.743-.155-1.048-.948-.304-.794-.908-1.223-1.342-.955-.434.268-.789.044-.789-.498s-.396-.74-.881-.44c-.485.299-.881.137-.881-.361s-.544-.697-1.208-.442c-.664.255-1.807-.135-2.538-.867-.732-.732-1.576-1.085-1.876-.785-.3.3-.545.095-.545-.455s-.595-.772-1.322-.493c-.727.279-1.322.045-1.322-.52 0-.565-.396-.782-.881-.483-.484.3-.881.137-.881-.361s-.594-.677-1.321-.398-1.322.081-1.322-.44c0-.522-.595-.72-1.321-.441-.727.279-1.322.068-1.322-.468 0-.537-.595-.975-1.322-.975-.726 0-1.327.495-1.335 1.101-.009.797-.225.766-.782-.113-.423-.668-1.21-.942-1.749-.609-1.067.66-1.43-4.041-.392-5.078 1.097-1.097 4.59-.593 11.922 1.719m116.833 17.85c-.238 2.056-.631 2.299-3.571 2.21-1.818-.056-3.304.288-3.304.763 0 .475-.992.675-2.203.443-1.212-.232-2.203-.028-2.203.453 0 .507-1.295.664-3.083.374-1.885-.306-3.084-.141-3.084.425 0 .528-1.137.759-2.643.538-1.454-.213-2.643-.017-2.643.437 0 .453-1.388.663-3.084.465-1.696-.198-3.084-.043-3.084.344 0 1.413-7.716.77-8.276-.69-1.327-3.459-1.274-3.477 19.289-6.528 17.525-2.599 18.276-2.567 17.889.766m-114.364 2.381c8.737.666 10.788 1.488 10.405 4.174-.309 2.17-15.692 3.604-15.692 1.462 0-.653-1.365-.774-4.185-.37-2.302.329-4.581.651-5.066.715-.484.063-1.138.471-1.453.905-1.06 1.463-3.393-.272-3.393-2.524 0-3.875 3.019-5.976 7.782-5.416 2.262.265 7.483.74 11.602 1.054m46.519 3.189c.582.582 1.058 2.28 1.058 3.775 0 6.063 19.31 11.129 26.417 6.93 3.088-1.823 5.533-1.026 5.121 1.67-.166 1.092-.789 1.887-1.383 1.766s-1.08.2-1.08.713c0 .513-.397.688-.882.388-.484-.299-.881-.082-.881.483s-.594.799-1.321.52-1.322-.123-1.322.347c0 .474-2.932.853-6.608.853-3.634 0-6.608-.359-6.608-.799 0-.439-.793-.591-1.762-.337-.969.253-1.762.055-1.762-.441s-.734-.709-1.631-.475c-.897.235-2.237-.18-2.978-.921-.742-.742-1.594-1.103-1.894-.803-.3.3-.545.059-.545-.534 0-.594-.4-.834-.888-.532-.488.302-1.122-.064-1.409-.813-.384-.999-.937-1.14-2.081-.527-.857.458-1.799.593-2.094.298-.294-.295-.792.133-1.105.95-.68 1.77-7.098 5.225-8.313 4.475-.467-.289-.85-.079-.85.466 0 .592-.712.767-1.762.434-1.056-.335-1.763-.159-1.763.44s-.706.776-1.762.441c-1.011-.321-1.762-.159-1.762.381 0 .541-1.87.94-4.405.94-2.423 0-4.405-.396-4.405-.881 0-.484-.467-.782-1.038-.661s-1.441-.872-1.934-2.207c-1.348-3.651.198-4.762 4.733-3.403 7.871 2.358 24.67-4.764 24.67-10.459 0-3.546 1.993-4.713 4.229-2.477m59.91 31.08c-3.418 3.418-11.72 6.65-19.576 7.62-3.915.484-10.091 1.26-13.726 1.724-17.143 2.19-59.239.833-63.676-2.052-1.079-.702-3.449-1.764-5.266-2.36-1.818-.595-3.304-1.425-3.304-1.843 0-2.097 2.59-1.665 8.625 1.44l6.651 3.422 19.895-.077c40.303-.155 59.189-2.351 67.368-7.833 5.006-3.355 6.341-3.373 3.009-.041M96.461 415.639c-.321 2.786-.996 6.652-1.502 8.59-.505 1.938-1.407 6.696-2.004 10.573-.756 4.912-1.294 6.553-1.775 5.414-.401-.948.107-5.753 1.209-11.453 1.045-5.401 2.148-11.704 2.452-14.005.304-2.302.924-4.185 1.377-4.185.485 0 .585 2.092.243 5.066m-6.404 40.616c-.886 27.593 3.046 55.183 11.375 79.831 2.782 8.229 2.485 10.17-1.557 10.17-.61 0-1.426.495-1.814 1.101-1.245 1.947-7.61 4.367-12.719 4.836-30.016 2.757-43.117-43.788-22.883-81.3 3.112-5.768 12.976-18.911 14.194-18.911.277 0 2.364-1.757 4.638-3.904 2.273-2.147 5.232-4.07 6.575-4.273 1.343-.203 2.48-.429 2.527-.501.046-.073-.105 5.755-.336 12.951m17.594 91.382c.376 1.421 2.872 6.53 5.547 11.354 2.675 4.824 4.864 9.109 4.864 9.523 0 1.861-2.014-.903-6.34-8.703-2.57-4.635-5.163-9.283-5.762-10.33-1.396-2.442-1.427-5.239-.053-4.781.583.195 1.368 1.516 1.744 2.937m100.298 68.037c-.031 1.785 3.208 7.662 4.982 9.039 1.53 1.188 1.535 1.164.113-.515-.821-.969-2.299-3.54-3.285-5.712-.985-2.172-1.799-3.437-1.81-2.812m-45.834 3.439c0 .498-1.04 2.437-2.31 4.309-1.27 1.871-1.64 2.848-.823 2.169 1.853-1.538 4.318-6.197 3.638-6.877-.278-.278-.505-.098-.505.399m59.028 4.015c-1.297 1.772-1.51 2.387-.558 1.614 1.444-1.173 3.629-4.478 2.96-4.478-.169 0-1.249 1.289-2.402 2.864" fill-rule="evenodd"/></svg>