<svg xmlns="http://www.w3.org/2000/svg" width="400" height="652.863"><path d="M319.764 22.384c-15.76 5.956-54.39 38.669-57.582 48.761-.734 2.323-1.858 2.566-2.624.57-.301-.785-1.11-1.195-1.819-.923-.702.269-4.564-.459-8.583-1.618-22.003-6.349-57.329-8.557-74.266-4.642-8.296 1.918-28.76 8.13-31.352 9.516-1.956 1.048-2.376.78-6.951-4.441-30.088-34.332-58.422-50.153-63.941-35.701-3.134 8.207 4.814 55.181 12.416 73.375 2.025 4.846 1.582 7.943-1.882 13.161-10.146 15.287-14.393 30.678-14.658 53.126l-.151 12.776 4.649 11.449c5.023 12.373 9.171 19.878 12.909 23.354 1.301 1.211 5.541 5.882 9.421 10.381 3.881 4.499 8.299 8.819 9.818 9.601 1.519.782 4.347 2.704 6.286 4.272 1.938 1.567 8.48 5.106 14.537 7.865 18.737 8.532 20.153 9.31 22.799 12.52 14.308 17.358 12.938 29.27-5.506 47.87-19.726 19.893-36.617 52.595-45.725 88.531-1.555 6.135-2.446 8.133-3.962 8.889-1.076.537-1.662 1.301-1.301 1.699.361.398.178.449-.406.114-1.575-.903-16.023 6.993-24.771 13.538-57.426 42.965-58.329 134.624-1.48 150.308 12.94 3.57 44.057.054 48.555-5.486 1.576-1.941 2.512-1.45 5.688 2.98 1.65 2.302 4.297 5.624 5.883 7.383l2.882 3.198-3.849.969c-9.829 2.475-14.091 13.939-7.912 21.282 4.528 5.382 15.609 8.941 22.438 7.207 2.614-.663 4.119-.678 4.88-.045.606.502-.065-2.393-1.49-6.435-1.425-4.041-2.599-8.216-2.609-9.278-.009-1.062-.396-2.165-.859-2.451-.464-.286-.676-1.004-.471-1.594.205-.59-1.2-2.159-3.122-3.487-2.246-1.553-3.494-3.094-3.494-4.316 0-1.754.205-1.687 2.65.873 1.458 1.525 2.771 2.773 2.918 2.773.147 0-.511-6.641-1.462-14.757-4.884-41.715-1.164-127.348 7.683-176.873.87-4.866.979-7.389.354-8.149-.655-.797-.53-1.102.451-1.102.745 0 1.533-.495 1.749-1.101 1.566-4.386 1.3 2.316-.558 14.021-15.064 94.91-11.491 200.361 7.4 218.385l2.741 2.616 1.685-2.07c1.958-2.405 4.037-8.91 5.252-16.432a655.449 655.449 0 0 1 1.73-10.132c6.899-38.144 7.619-151.883 1.236-195.375-.453-3.085-.299-3.744.872-3.744.782 0 1.422.109 1.422.243s.395 3.405.877 7.269c7.093 56.835 5.279 161.764-3.51 203.005-.884 4.15-1.449 7.707-1.256 7.905.194.199.609-.923.923-2.493.483-2.415.857-2.762 2.429-2.254 6.303 2.036 24.207 2.756 30.052 1.209 7.098-1.878 8.37-1.954 8.37-.499 0 .753.458 1.653 1.018 1.998.572.354.78.245.474-.249-1.531-2.477-4.687-26.567-5.956-45.47-1.212-18.039-.632-89.46.889-109.431 2.825-37.108 5.124-56.854 6.994-60.068 1.357-2.334 1.268 3.027-.299 17.904-9.242 87.797-6.276 196.092 5.668 206.901 3.156 2.856 8.26-5.024 11.527-17.798.931-3.639 2.474-8.851 3.43-11.58 12.125-34.645 8.665-147.253-6.108-198.76-1.208-4.212-1.475-6.417-.851-7.041 1.421-1.421 2.113.364 5.575 14.379 12.907 52.256 16.09 138.663 6.69 181.592-1.968 8.986-2.038 8.867 2.519 4.264 4.316-4.359 7.34-5.495 4.636-1.742-.929 1.29-3.62 4.184-5.979 6.431-3.535 3.366-4.648 5.226-6.329 10.572-1.121 3.569-2.596 7.983-3.277 9.81-1.604 4.305-1.523 5.264.18 2.123 1.322-2.439 1.389-2.457 3.639-.983 6.154 4.033 28.477.633 33.273-5.067 5.3-6.298-4.039-21.862-13.118-21.862-.719 0-2.405-.417-3.746-.927l-2.437-.926 2.244-1.937c10.407-8.982 29.238-39.211 36.607-58.765 5.49-14.569 6.504-17.793 10.111-32.159.973-3.876 2.179-7.544 2.68-8.149.635-.768.612-1.102-.078-1.102-1.387 0-1.226-3.365.698-14.537.918-5.331 1.947-13.362 2.288-17.848.34-4.485 1.034-8.412 1.541-8.726 1.891-1.168-.434 25.6-3.317 38.187-1.28 5.592 11.394-2.165 26.712-16.349 8.233-7.624 15.192-16.153 21.736-26.642 1.931-3.095 4.865-7.807 6.52-10.472 4.598-7.402 14.962-26.973 16.478-31.116 13.228-36.15 13.723-47.777 2.711-63.702-8.186-11.839-22.952-13.352-29.078-2.981-3.129 5.297.338 15.86 5.205 15.86 7.928 0-4.896 35.956-23.413 65.648-8.699 13.947-20.602 30.178-22.242 30.327-.363.033-.66-5.988-.66-13.381 0-39.736-10.463-77.933-28.673-104.676-6.728-9.881-18.708-23.492-21.234-24.126-5.861-1.471-8.425-16.373-4.582-26.642 2.93-7.832 7.246-11.565 19.687-17.03 5.815-2.555 11.167-5.137 11.894-5.738.727-.601 3.005-1.939 5.062-2.973 9.624-4.839 30.964-25.907 34.638-34.197 1.457-3.288 3.421-7.564 4.364-9.502 8.53-17.538 10.192-46.889 3.625-64.04-1.136-2.967-1.427-9.404-.53-11.731.373-.97-1.397 1.376-3.934 5.211-2.537 3.835-4.964 7.899-5.395 9.031-.43 1.131-1.188 2.057-1.685 2.057-.496 0-.903.465-.903 1.032 0 2.656-8.032 8.854-9.301 7.179-1.56-2.057-1.553-2.475.059-3.812 1.145-.951 6.305-7.559 13.403-17.167 2.246-3.039 6.412-11.604 6.412-13.182 0-.583 1.181-2.843 2.624-5.022 1.444-2.18 3.471-6.708 4.505-10.063 1.034-3.356 2.149-6.3 2.478-6.542.33-.242 1.12-2.225 1.757-4.405 1.949-6.672 2.825-7.99 2.344-3.524-.358 3.33-.281 3.612.485 1.762 3.623-8.751-1.037-47.354-7.194-59.607-4.147-8.251-4.837-8.62-11.464-6.115m1.546 22.55c5.571 35.192-8.338 93.341-22.087 92.336-4.385-.321-5.796-3.614-2.148-5.009 9.164-3.504 19.157-40.412 19.433-71.778.177-20.038.377-19.904-11.735-7.851l-9.948 9.9 2.038 2.169c2.277 2.424 1.927 4.903-.692 4.903-.925 0-2.19-.612-2.81-1.359-.781-.942-1.41-1.078-2.044-.443-.635.635-.02 1.842 2 3.926 4.458 4.6 1.221 7.195-3.424 2.745-2.167-2.076-2.322-2.102-3.293-.547-.884 1.415-.501 2.004 2.887 4.436 2.148 1.543 3.905 3.387 3.905 4.099 0 2.324-2.657 2.432-5.119.209-4.838-4.371-5.241-4.537-6.281-2.594-.823 1.539-.354 2.335 3.503 5.943 7.776 7.273 3.456 11.882-4.54 4.844-3.842-3.382-4.005-3.437-5.078-1.718-.61.976-.983 1.856-.828 1.955l6.124 3.915c6.922 4.424 8.957 6.488 8.544 8.664-.62 3.271-4.394 2.323-11.191-2.812-3.573-2.699-6.592-4.792-6.709-4.65-2.878 3.501-.75 5.729 14.133 14.796 2.648 1.614 3.545 4.053 2.121 5.769-1.695 2.043-2.654 1.626-11.233-4.888-9.434-7.162-9.683-7.233-10.045-2.863-.437 5.281-6.311 5.088-6.697-.22-1.069-14.699 45.421-71.862 57.525-70.732 2.573.24 2.671.423 3.689 6.855M96.441 53.179c7.447 3.875 29.584 24.777 34.656 32.724 5.626 8.815 10.66 21.361 9.393 23.411-.956 1.546-2.953-.873-3.581-4.336-1.847-10.185-10.562-22.006-31.056-42.126-4.195-4.118-16.692-11.962-17.885-11.225-2.017 1.247.032 14.283 4.596 29.233 3.667 12.009 3.315 11.317 4.758 9.363 2.3-3.116 3.76-.15 1.757 3.57-2.583 4.796-.462 5.956 2.555 1.397 1.296-1.958 2.714-3.56 3.151-3.56 1.851 0 1.338 2.486-1.394 6.757-2.711 4.238-2.839 4.76-1.78 7.279l1.141 2.713 3.47-6.832c2.933-5.776 3.81-6.833 5.672-6.833 4.404 0 3.091 5.27-3.523 14.142-3.187 4.274-3.266 4.548-2.009 6.948l1.31 2.499 2.476-4.528c3.458-6.325 10.334-15.803 12.135-16.728 4.475-2.299 4.836 1.901.636 7.403-3.365 4.408-9.263 14.158-9.263 15.313 0 .399-.586 1.213-1.303 1.808-.948.787-1.067 1.521-.438 2.697.582 1.088.558 1.806-.074 2.197-5.754 3.556-27.26-53.609-27.26-72.459 0-6.761.401-6.789 11.86-.827m182.754.376c-9.668 10.545-25.374 38.808-28.777 51.785-1.642 6.26-2.413 6.983-3.273 3.07-1.239-5.642 5.623-22.582 13.619-33.62 1.47-2.029 2.672-4.052 2.672-4.497 0-.444 1.289-2.078 2.864-3.631 1.574-1.553 5.764-6.086 9.31-10.073 3.547-3.987 6.673-7.25 6.949-7.25.276 0-1.238 1.897-3.364 4.216m-139.45 22.656c.328.97 1.462 2.952 2.521 4.406 5.332 7.326 9.204 22.392 6.679 25.991-1.288 1.836-2.658-.29-2.676-4.154-.02-4.266-2.207-10.159-8.049-21.694-7.482-14.773-7.857-16.101-3.025-10.716 2.174 2.423 4.222 5.198 4.55 6.167m195.08 21.402c-4.027 12.554-4.245 13.4-3.455 13.4.434 0 .789-.601.789-1.336 0-.736 1.217-4.913 2.706-9.283 1.488-4.37 2.578-8.312 2.423-8.759-.156-.448-1.264 2.242-2.463 5.978m-5.166 16.522c-1.477 3.24-1.195 3.931.401.985.746-1.375 1.191-2.665.989-2.867-.201-.201-.827.645-1.39 1.882m-234.383 9.654c1.072 1.938 3.663 5.549 5.759 8.024 3.968 4.685 4.685 6.513 2.557 6.513-3.892 0-12.039-13.961-12.556-21.518l-.307-4.473 1.299 3.965c.714 2.18 2.176 5.55 3.248 7.489m38.845 44.433c4.149 7.569 19.01 7.077 25.68-.85 1.272-1.512 2.314-2.539 2.314-2.283 0 1.177-2.124 4.955-2.785 4.955-.407 0-.74.416-.74.925 0 .508-1.387 2.353-3.083 4.1-1.696 1.746-3.09 2.817-3.098 2.379-.007-.438-.37-.232-.806.456-.895 1.415-10.634 2.13-10.634.782 0-.449-.396-.571-.881-.272-.484.3-.881.125-.881-.388 0-.514-.297-.844-.661-.735-2.124.638-9.1-10.566-9.001-14.459.035-1.376 2.383 1.39 4.576 5.39m134.974 1.602c-.778 1.817-1.635 3.898-1.905 4.625-.789 2.119-3.942 5.275-4.763 4.767-.414-.256-.753-.022-.753.52 0 .541-.396.74-.881.44-.485-.299-.881-.082-.881.483s-.595.799-1.322.52c-.727-.279-1.321-.123-1.321.346 0 .47-.793.854-1.762.854-.97 0-1.763-.423-1.763-.941 0-.539-.751-.702-1.762-.381-1.05.334-1.762.159-1.762-.433 0-.546-.396-.747-.881-.448-.484.3-.881.125-.881-.388s-.323-.834-.717-.713c-.94.289-6.331-5.093-6.331-6.32 0-.522-.351-.949-.779-.949-.428 0-.983-.784-1.233-1.742-.358-1.368.134-1.152 2.293 1.007 7.42 7.42 18.764 6.936 25.203-1.076 3.487-4.339 4.001-4.379 2.201-.171m-58.952 19.621c.579.937-.644 5.586-2.662 10.114-.648 1.454-1.468 3.807-1.822 5.228-.355 1.422-1.176 3.602-1.825 4.846-.649 1.244-1.185 2.856-1.191 3.583-.006.727-.542 2.339-1.191 3.583-.649 1.244-1.447 3.325-1.773 4.625-.554 2.206-3.203 3.433-3.203 1.483 0-1.036-1.949-.791-2.775.349-1.099 1.517-3.395-.319-4.805-3.843-.782-1.955-1.716-3.554-2.075-3.554-.36 0-1.749-2.577-3.088-5.727-1.338-3.15-2.718-5.727-3.065-5.727-2.736 0-5.155-11.119-2.694-12.386 3.262-1.679 31.333-3.926 32.169-2.574m-7.5 4.53c0 .626-1.4.81-3.965.521-2.311-.261-3.964-.086-3.964.418 0 .479-1.577.715-3.525.53-1.938-.185-3.524.015-3.524.444s-1.394.618-3.099.419c-1.704-.199-2.992-.136-2.863.14 3.143 6.705 12.808 23.811 13.455 23.813.487.003 2.826-5.447 5.197-12.11a7228.633 7228.633 0 0 1 4.672-13.102c.199-.544-.257-1.225-1.012-1.515-.754-.289-1.372-.091-1.372.442m56.96 8.228c.512 1.687-2.793 4.746-5.418 5.015-1.454.149-3.19.789-3.858 1.423-.668.634-1.759.943-2.423.688-.664-.255-1.208-.056-1.208.442s-.396.661-.881.361c-.485-.299-.881-.082-.881.483s-.595.799-1.322.52c-.727-.279-1.321-.057-1.321.493s-.246.755-.546.455c-.3-.3-1.144.053-1.875.785-.732.732-1.874 1.122-2.539.867-.664-.255-1.208-.014-1.208.536 0 .551-.245.755-.545.455-.3-.3-1.139.048-1.864.774-.726.725-1.765 1.17-2.311.988-.545-.181-1.536.215-2.202.881-.667.667-1.658 1.063-2.203.881-.545-.181-1.549.228-2.232.911-.682.682-1.955 1.053-2.829.825-.873-.229-1.756.038-1.961.592-.601 1.627-2.573-.723-2.217-2.643.226-1.222 4.629-3.357 17.428-8.452 9.418-3.749 17.544-7.236 18.057-7.749 1.126-1.126 5.984-.768 6.359.469m-114.935 2.747c13.665 4.31 23.981 10.636 23.064 14.144-.536 2.049-4.121 2.089-6.477.072-.899-.77-1.857-1.178-2.129-.906-.272.272-.743-.155-1.048-.948-.304-.794-.908-1.223-1.342-.955-.434.268-.789.044-.789-.498s-.396-.74-.881-.44c-.485.299-.881.137-.881-.361s-.544-.697-1.208-.442c-.664.255-1.807-.135-2.538-.867-.732-.732-1.576-1.085-1.876-.785-.3.3-.545.095-.545-.455s-.595-.772-1.322-.493c-.727.279-1.322.045-1.322-.52 0-.565-.396-.782-.881-.483-.484.3-.881.137-.881-.361s-.594-.677-1.321-.398-1.322.081-1.322-.44c0-.522-.595-.72-1.321-.441-.727.279-1.322.068-1.322-.468 0-.537-.595-.975-1.322-.975-.726 0-1.327.495-1.335 1.101-.009.797-.225.766-.782-.113-.423-.668-1.21-.942-1.749-.609-1.067.66-1.43-4.041-.392-5.078 1.097-1.097 4.59-.593 11.922 1.719m116.833 17.85c-.238 2.056-.631 2.299-3.571 2.21-1.818-.056-3.304.288-3.304.763 0 .475-.992.675-2.203.443-1.212-.232-2.203-.028-2.203.453 0 .507-1.295.664-3.083.374-1.885-.306-3.084-.141-3.084.425 0 .528-1.137.759-2.643.538-1.454-.213-2.643-.017-2.643.437 0 .453-1.388.663-3.084.465-1.696-.198-3.084-.043-3.084.344 0 1.413-7.716.77-8.276-.69-1.327-3.459-1.274-3.477 19.289-6.528 17.525-2.599 18.276-2.567 17.889.766m-114.364 2.381c8.737.666 10.788 1.488 10.405 4.174-.309 2.17-15.692 3.604-15.692 1.462 0-.653-1.365-.774-4.185-.37-2.302.329-4.581.651-5.066.715-.484.063-1.138.471-1.453.905-1.06 1.463-3.393-.272-3.393-2.524 0-3.875 3.019-5.976 7.782-5.416 2.262.265 7.483.74 11.602 1.054m46.519 3.189c.582.582 1.058 2.28 1.058 3.775 0 6.063 19.31 11.129 26.417 6.93 3.088-1.823 5.533-1.026 5.121 1.67-.166 1.092-.789 1.887-1.383 1.766s-1.08.2-1.08.713c0 .513-.397.688-.882.388-.484-.299-.881-.082-.881.483s-.594.799-1.321.52-1.322-.123-1.322.347c0 .474-2.932.853-6.608.853-3.634 0-6.608-.359-6.608-.799 0-.439-.793-.591-1.762-.337-.969.253-1.762.055-1.762-.441s-.734-.709-1.631-.475c-.897.235-2.237-.18-2.978-.921-.742-.742-1.594-1.103-1.894-.803-.3.3-.545.059-.545-.534 0-.594-.4-.834-.888-.532-.488.302-1.122-.064-1.409-.813-.384-.999-.937-1.14-2.081-.527-.857.458-1.799.593-2.094.298-.294-.295-.792.133-1.105.95-.68 1.77-7.098 5.225-8.313 4.475-.467-.289-.85-.079-.85.466 0 .592-.712.767-1.762.434-1.056-.335-1.763-.159-1.763.44s-.706.776-1.762.441c-1.011-.321-1.762-.159-1.762.381 0 .541-1.87.94-4.405.94-2.423 0-4.405-.396-4.405-.881 0-.484-.467-.782-1.038-.661s-1.441-.872-1.934-2.207c-1.348-3.651.198-4.762 4.733-3.403 7.871 2.358 24.67-4.764 24.67-10.459 0-3.546 1.993-4.713 4.229-2.477m59.91 31.08c-3.418 3.418-11.72 6.65-19.576 7.62-3.915.484-10.091 1.26-13.726 1.724-17.143 2.19-59.239.833-63.676-2.052-1.079-.702-3.449-1.764-5.266-2.36-1.818-.595-3.304-1.425-3.304-1.843 0-2.097 2.59-1.665 8.625 1.44l6.651 3.422 19.895-.077c40.303-.155 59.189-2.351 67.368-7.833 5.006-3.355 6.341-3.373 3.009-.041M96.145 417.312c-.488 3.32-1.498 8.811-2.245 12.203-.747 3.392-1.365 7.536-1.374 9.207-.011 2.342-.255 2.8-1.058 1.997-.804-.804-.679-3.02.545-9.648.874-4.732 1.947-10.785 2.385-13.45.936-5.694 1.5-7.479 2.157-6.823.262.263.078 3.194-.41 6.514m-6.097 39.5c-.819 26.939 3.709 58.541 11.427 79.752 2.979 8.188 2.999 7.806-.491 9.265-1.753.732-3.187 1.649-3.187 2.038 0 1.205-10.817 4.574-14.656 4.565-26.789-.066-38.843-38.881-23.532-75.78 3.152-7.597 15.716-25.551 17.88-25.551.351 0 2.276-1.558 4.279-3.463 2.002-1.904 4.743-3.629 6.09-3.833 1.348-.203 2.485-.429 2.527-.501.043-.073-.109 6.006-.337 13.508m17.603 90.825c.376 1.421 2.872 6.53 5.547 11.354 2.675 4.824 4.864 9.109 4.864 9.523 0 1.861-2.014-.903-6.34-8.703-2.57-4.635-5.163-9.283-5.762-10.33-1.396-2.442-1.427-5.239-.053-4.781.583.195 1.368 1.516 1.744 2.937m37.723 68.846c0 .558 1.884 2.949 4.185 5.312 2.302 2.363 2.956 2.887 1.454 1.163-1.503-1.724-3.386-4.115-4.185-5.313-.8-1.198-1.454-1.721-1.454-1.162m15.828 4.738c-.632 1.527-2.371 3.521-3.863 4.431-1.492.91-2.306 1.656-1.808 1.657 2.462.009 8.543-7.142 7.208-8.476-.213-.213-.905.862-1.537 2.388m48.76-.452c.757 1.489 2.044 3.263 2.862 3.941.818.679.425-.331-.873-2.244-3.067-4.519-3.695-5.055-1.989-1.697m11.181 2.359c-1.297 1.772-1.51 2.387-.558 1.614 1.444-1.173 3.629-4.478 2.96-4.478-.169 0-1.249 1.289-2.402 2.864" fill-rule="evenodd"/></svg>