<svg xmlns="http://www.w3.org/2000/svg" width="400" height="255"><path d="M201.299 8.016C71.707 13.64-26.053 96.836 18.621 163.48c2.599 3.876 4.363 8.86 5.542 15.652 5.686 32.764 45.007 78.528 49.123 57.173l1.493-7.734c.884-4.58 4.875-5.342 7.017-1.339 5.479 10.236 35.867 16.834 51.646 11.213 3.035-1.081 5.519-1.598 5.519-1.148 0 .45 1.398-.495 3.107-2.101 1.844-1.733 3.303-2.329 3.591-1.467.269.808 2.201-.221 4.36-2.322 5.315-5.172 8.583-5.922 15.529-3.564 9.267 3.146 19.295 3.866 28.032 2.011l7.874-1.671 5.442 5.28c16.56 16.068 31.355 15.336 30.551-1.512l-.434-9.106 16.883-2.944c9.286-1.618 19.075-3.327 21.753-3.796l4.87-.853v6.4c0 22.794 40.995-1.737 51.438-30.779 2.103-5.848 3.655-7.593 12.175-13.69 15.872-11.36 29.948-25.735 35.247-35.995 1.512-2.929 3.125-4.554 3.988-4.02.848.523 1.088.31.579-.514-.479-.775.584-5.743 2.362-11.04C409.505 56.511 324.78 2.658 201.299 8.016m81.169 29.671c73.476 18.26 79.883 95.916 11.873 143.918-21.696 15.313-67.623 31.346-71.557 24.98-1.407-2.276 1.775-5.283 5.622-5.312 12.268-.094 42.175-11.035 58.748-21.492 71.102-44.863 64.21-123.448-12.216-139.304-5.74-1.191-10.68-2.896-10.977-3.789-.801-2.403 6.378-2.015 18.507.999m-35.199 19.201c-5.49 12.805-6.135 15.56-6.138 26.229-.012 38.857 25.991 78.015 54.217 81.646 7.168.922 9.244 3.384 3.74 4.436-19.025 3.637-43.884-13.383-56.629-38.772-10.73-21.375-10.471-59.372.507-74.528 4.665-6.439 7.235-5.849 4.303.989M96.104 88.871c28.616 5.192 61.974 29.075 81.571 58.402 9.305 13.925 9.038 14.532-6.136 13.946l-12.157-.469.707 3.067c4.015 17.417 4.804 22.974 4.824 33.956.021 12.158.131 12.65 2.534 11.364 3.252-1.741 17.699-1.741 20.95 0 4.838 2.589 2.448 3.85-7.293 3.85-10.135 0-16.482 2.053-17.919 5.796-2.712 7.067-6.77-2.594-4.618-10.992 1.661-6.48.106-27.837-2.894-39.751l-1.512-6.003-5.674.778c-3.121.428-7.428 1.685-9.572 2.793-3.516 1.818-3.972 1.819-4.668.005-2.015-5.249 8.865-9.359 28.611-10.808l12.397-.909-8.626-10.162c-55.981-65.943-133.937-60.328-139.23 10.028-1.059 14.083-4.022 15.302-4.022 1.655 0-47.519 29.388-74.409 72.727-66.546m101.279 89.808c21.229 19.857 40.595 58.983 29.195 58.983-1.331 0-1.906-1.464-1.915-4.87-.025-9.488-15.57-35.236-30.413-50.374-4.695-4.788-8.536-8.927-8.536-9.198 0-2.405 6.526.648 11.669 5.459m-15.302 8.009c5.65 7.916 23.114 35.953 23.114 37.108 0 .483-1.03.879-2.289.879-2.492 0-28.048-41.052-26.806-43.06 1.05-1.7 1.295-1.492 5.981 5.073m-31.76 3.128c-3.603 6.485-11.39 12.06-15.169 10.861-4.065-1.29-3.358-4.573.984-4.573 3.737 0 5.402-1.284 11.378-8.77 4.552-5.702 6.431-4.04 2.807 2.482m177.678-.814c-1.387 1.049-3.362 1.907-4.389 1.907-3.027 0-24.663 11.878-30.077 16.512-5.566 4.765-6.52 5.113-6.52 2.382 0-1.037 2.653-3.712 5.896-5.943 12.419-8.544 44.959-22.323 35.09-14.858m-239.341 7.881c.429.429-1.148 2.706-3.503 5.061-4.652 4.652-12.372 21.618-12.519 27.511-.16 6.424-2.311 9.707-2.399 3.662-.218-14.867 13.266-41.389 18.421-36.234m28.214 19.026c-.019 6.883-7.626 13.961-15.006 13.961-4.256 0-5.762-.509-5.762-1.948 0-1.366 1.379-1.948 4.619-1.948 5.091 0 12.909-6.835 11.63-10.168-.877-2.286.306-4.118 2.659-4.118 1.248 0 1.867 1.407 1.86 4.221m27.284 7.468c0 .714-.844 1.298-1.875 1.298-1.03 0-2.784 1.299-3.896 2.887-1.112 1.587-2.021 2.172-2.021 1.298 0-1.908 4.666-6.782 6.493-6.782.714 0 1.299.584 1.299 1.299" fill-rule="evenodd"/></svg>