<?xml version="1.0" encoding="UTF-8"?>
<svg version="1.1" viewBox="0 0 400 400" xmlns="http://www.w3.org/2000/svg">
<!-- tavernKeeper -->
<g id="tavernKeeper" fill="#9f6062" stroke="#FFFEBD" stroke-width="3" >
<path d="m103.75 27.406c2.7322-4.3793-0.51032-13.987 15.008-7.1778 8.1907-0.01733 7.8844 9.3406 15.008 8.4829 11.892 18.925 9.4383 21.711 7.8303 25.449 3.4349 1.8407 7.7315 3.4228 2.6101 7.8303 15.801 8.9947 31.34 17.973 33.279 26.101 7.7893 7.5152 23.418 8.759 35.237 13.051l21.533 147.47-101.14 19.576-45.024 33.279-0.65253-57.423c-5.2047-2.8423-23.474 16.319-13.703-11.746-25.296-8.6043-19.009-14.898-8.4829-20.881 8.458-2.9291 15.743-7.227 18.923-16.313-0.36483-7.5928-1.0304-15.186-10.072-22.778-5.993-3.6548-20.72-9.8052-32.342-15.068-1.9035-17.428-7.7376-32.89-3.2626-53.507 11.693-10.799 22.024-21.845 43.079-30.941 1.7102-4.9917 11.803-4.4136 16.301-5.6006-1.5532-4.1638-1.1447-8.6546 2.6101-13.703-1.456-7.683 0.31058-16.655 3.2626-26.101z"/>
</g>
<!-- townCrier -->
<g id="townCrier" fill="#8f3d40" stroke="#FFFEBD" stroke-width="3">
<path d="m193.15 58.728c13.532 1.0408 25.738 3.4087 30.669 13.051 5.6552-9.2785 19.141-4.8355 24.796-1.9576l3.2626 18.271 15.008 0.65253c7.2881 18.562-2.2642 25.897-15.661 30.669l-5.2202 11.093c13.485-1.5208 23.136 8.4604 33.279 16.966 3.5981 4.3502 6.6433 8.7004 0 13.051 17.808 11.093 20.208 22.186 20.881 33.279l-16.966 99.837-55.562 2.0478c-1.6598 7.756-9.1313 5.0508-16.869 1.8674-0.6177 12.146-0.62253 23.679 0 34.584-2.0496 6.5191-8.0406 8.1113-15.008 8.4829-12.409-1.0844-19.758-3.6145-23.491-7.1778l1.305-8.4829c4.6045-3.7311 9.816-4.4276 15.661-1.9576 2.371-7.3953 3.8473-14.791 1.3051-22.186-22.408 5.0318-31.164-5.1053-43.067-11.746 6.9603-30.016 6.4342-71.262 20.881-90.049 6.1158-5.2032 9.9995-11.894 12.398-19.576-7.5302-3.1652-8.9574-8.7716-10.44-14.356-6.5801 4.328-17.25 3.7479-30.016 0.65253-4.6014-4.1158-4.8553-10.405-4.5677-16.966l-9.1354-1.9576-0.65253-7.1778-5.2202 7.1778c-5.7594 1.2453-10.098 0.83299-8.4829-6.5253-9.3998 8.027-10.172-0.1235-9.7879-10.44l5.8728-9.7879-11.746-12.398 5.2202-3.2626 18.923 12.398 11.746 11.746 9.7879 5.2202c6.7207-0.90574 13.388-1.7221 15.008 5.8728 17.189-1.5475 28.666 0.12541 37.194 1.3051l12.398-5.8728c-3.7193-6.9784-4.2287-14.145 0-22.838-2.2964-2.2505-10.822 4.734-13.703-7.1778-4.5949-10.743 2.956-14.455 2.6101-19.576-4.863-7.3207-6.4356-15.958-2.6101-26.754z" />
</g>
<g id="stoneCutter" fill="#7f1a1d" stroke="#FFFEBD" stroke-width="3">
<!-- stonecutter -->
<path d="m225.69 270.57 23.415-3.252c2.317-13.703 9.8072-19.277 18.211-23.415-1.2514-14.474 9.5871-22.232 24.065-27.967-0.46357-8.9595-0.15299-16.887 4.6004-18.89 17.744-14.329 26.768-8.7878 35.725 5.8822 7.3312 0.0348 9.8826-3.7544 12.98-7.107l5.8822-0.0475 2.6016-9.7561-8.4553-13.008 14.64-11.702 18.849 20.151-11.707 15.935-10.074-6.8234-1.3008 8.4553c-0.74167 11.373 9.8507 8.4037 15.591 15.204 5.0041 9.1082 5.1848 22.948-1.9322 30.325-5.0524 1.1123-10.163 1.9649-16.911-4.5528-7.5166 31.437-1.8795 51.036 7.8049 66.992 2.391 11.13 0.75349 8.2632-1.9235 16.014-1.6518 6.9831-6.0534 24.118 0.62269 32.766-14.092 5.4777-24.415 7.4382-25.366 0.6504 1.3814-13.011-1.4564-24.755-17.561-32.52-7.8308 2.4512 10.651 17.569 0.65041 31.87l-9.3881-0.67891-20.531 9.1342c-27.352-2.3724-54.211-4.8018-59.187-9.7561"/>
<path d="m225.98 269.9 1.0058 85.162h1.0058"/>
</g>
<!-- armorer -->
<g id="armorer" fill="#661518" stroke="#FFFEBD" stroke-width="3">
<path d="m109.01 201.29c-32.616 11.924-23.493 24.184-27.713 36.108-25.968 24.6-2.7052 30.055 18.211 36.423-18.996 15.143-16.55 35.646-22.764 53.984-5.4636 3.7661-6.6276 8.7607-5.8537 14.309 1.7823 11.962-5.1994 22.672-9.1057 33.821 7.2197 5.5929 15.716 6.0809 24.715 4.5528 3.3688-2.0012 8.1924-3.2751 6.5041-7.8049l-7.8049-5.8537c-0.92969-7.95 2.0989-11.282 6.5041-13.008 5.2963-6.2562 7.8731-13.419 7.8049-21.463 4.4501 10.19 2.9789 20.379 1.3008 30.569 19.234 11.483 36.778 8.8828 53.333-1.9512 0.40649-4.7877 1.4803-9.1306-0.65041-15.61l11.057 13.008-1.9512 10.407c8.7325 6.0632 17.314 11.422 23.415 5.2032 8.2731-0.0631 6.4756-4.7037 5.2032-9.1057-2.1249-6.0268-8.0847-6.3011-13.659-7.1545 5.6653 1.279 3.8265-13.055-0.71089-22.724-3.1012-0.92526-6.57-1.1151-7.094-7.1948l-3.252-8.4553c2.7005-6.8956 0.28761-15.372-18.211-44.228 3.7078-5.1588 3.9949-17.159 5.2032-27.317 7.3792 5.1257 13.603 11.134 15.63 19.827 9.2359-2.0815 12.539 1.435 15.59 5.5385 3.9694 2.5722 4.021 10.041 4.5528 16.911 3.9277-4.9107 7.5905-10.616 12.358-13.008l7.1545-13.659c9.3225-22.764 18.645-53.573 27.967-68.293l-8.4553-1.9512c5.0978 3.8333-15.569 43.737-23.415 65.691l-5.8537-5.2032c4.7696-22.331 7.4347-48.87 14.309-66.992l-6.5041-0.65041c-0.93343 21.485-8.2385 45.095-12.358 67.642-5.87-7.2553-9.3335-15.34-17.816-15.63-2.6864-7.7704-8.3546-15.469-17.306-21.443-1.9859-8.8636-7.9172-12.268-14.309-14.959-1.1815-11.308-2.6452-22.364-11.707-26.667-5.9338-1.6308-11.836-3.3869-19.512 1.9512-5.8642 7.8449-9.6517 16.651-4.8075 24.38z"/>
</g>
</svg>